<?xml version="1.0" encoding="UTF-8" standalone="no"?> <svg width="64" height="64" viewBox="0 0 64 64" fill="none" xmlns="http://www.w3.org/2000/svg">
<path d="M50 11H40V15H50V11Z" fill="#CFF09E"/>
<path d="M45 19C41.8355 19 38.742 19.9384 36.1109 21.6965C33.4797 23.4546 31.4289 25.9534 30.2179 28.8771C29.0069 31.8007 28.69 35.0177 29.3074 38.1214C29.9248 41.2251 31.4486 44.0761 33.6863 46.3137C35.9239 48.5513 38.7748 50.0752 41.8785 50.6926C44.9822 51.3099 48.1993 50.9931 51.1229 49.7821C54.0465 48.5711 56.5454 46.5203 58.3035 43.8891C60.0616 41.2579 61 38.1645 61 35C61 30.7565 59.3143 26.6869 56.3137 23.6863C53.3131 20.6857 49.2434 19 45 19ZM45 47C42.6266 47 40.3065 46.2962 38.3331 44.9776C36.3597 43.6591 34.8217 41.7849 33.9134 39.5922C33.0052 37.3995 32.7675 34.9867 33.2306 32.6589C33.6936 30.3311 34.8365 28.1929 36.5147 26.5147C38.1929 24.8365 40.3311 23.6936 42.6589 23.2306C44.9867 22.7676 47.3995 23.0052 49.5922 23.9134C51.7849 24.8217 53.659 26.3598 54.9776 28.3332C56.2962 30.3065 57 32.6266 57 35C57 38.1826 55.7357 41.2348 53.4853 43.4853C51.2348 45.7357 48.1826 47 45 47Z" fill="#A8DBA8"/>
<path d="M45 23C42.9425 23.0017 40.9201 23.5324 39.1268 24.5411C37.3336 25.5498 35.8299 27.0026 34.76 28.76C37.0563 27.3699 39.7524 26.7898 42.4172 27.1125C45.082 27.4352 47.5617 28.6421 49.4598 30.5402C51.3579 32.4382 52.5648 34.9179 52.8875 37.5828C53.2102 40.2476 52.6301 42.9437 51.24 45.24C53.4712 43.8768 55.1961 41.8221 56.1523 39.3886C57.1086 36.955 57.2438 34.2757 56.5374 31.7583C55.8311 29.2408 54.3219 27.0229 52.2392 25.442C50.1566 23.861 47.6147 23.0036 45 23Z" fill="#CFF09E"/>
<path d="M57.63 25.2L60.56 22.27L57.73 19.44L54.8 22.37C55.8595 23.1895 56.8105 24.1405 57.63 25.2V25.2Z" fill="#CFF09E"/>
<path d="M35.2 22.37L32.27 19.44L29.44 22.27L32.37 25.2C33.1894 24.1405 34.1404 23.1895 35.2 22.37Z" fill="#CFF09E"/>
<path d="M45 19C45.6689 19.0061 46.3368 19.0529 47 19.14V15H43V19.14C43.6632 19.0529 44.3311 19.0061 45 19V19Z" fill="#79BD9A"/>
<path d="M36.35 55.26L12.67 41.59C12.007 42.7384 11.8273 44.1032 12.1705 45.384C12.5137 46.6649 13.3516 47.757 14.5 48.42L32.58 58.86C35.0126 60.2631 37.7717 61.0011 40.58 61H59C59.5304 61 60.0391 60.7893 60.4142 60.4142C60.7893 60.0392 61 59.5305 61 59V57H42.85C40.5682 57.0005 38.3264 56.4004 36.35 55.26V55.26Z" fill="#79BD9A"/>
<path d="M49 45H42.58L37.23 41.91C36.9118 41.7219 36.6794 41.4172 36.5823 41.0605C36.4852 40.7039 36.531 40.3234 36.71 40L38.28 37.28C38.3796 37.1147 38.445 36.9311 38.4723 36.74C38.4995 36.5489 38.4881 36.3543 38.4387 36.1677C38.3892 35.9811 38.3028 35.8064 38.1845 35.6539C38.0662 35.5014 37.9184 35.3743 37.75 35.28V35.28L29.95 35.42C29.0028 35.4356 28.066 35.2197 27.2212 34.7911C26.3763 34.3625 25.6489 33.7342 25.1019 32.9606C24.555 32.1871 24.2052 31.2917 24.0829 30.3523C23.9606 29.4129 24.0694 28.4578 24.4 27.57L21.67 26L12.67 41.59L36.35 55.26C38.3264 56.4004 40.5682 57.0005 42.85 57H61C61 53.8174 59.7357 50.7652 57.4853 48.5147C55.2348 46.2643 52.1826 45 49 45Z" fill="#CFF09E"/>
<path d="M19.2301 30.4591L31.4101 37.4591C30.6144 38.8435 29.3014 39.8552 27.7598 40.2715C26.2183 40.6879 24.5745 40.4748 23.1901 39.6791L16.2301 35.6791L19.2301 30.4591Z" fill="#A8DBA8"/>
<path d="M57.12 46.87C58.0939 45.8839 58.9435 44.7824 59.65 43.59L59.72 43.5C59.72 43.5 59.72 43.43 59.72 43.4C61.1914 40.8414 61.9658 37.9415 61.9658 34.99C61.9658 32.0385 61.1914 29.1386 59.72 26.58C59.7226 26.5534 59.7226 26.5266 59.72 26.5L59.65 26.42C59.43 26.04 59.19 25.66 58.94 25.3L61.26 23C61.3537 22.907 61.4281 22.7964 61.4789 22.6746C61.5297 22.5527 61.5558 22.422 61.5558 22.29C61.5558 22.158 61.5297 22.0273 61.4789 21.9054C61.4281 21.7836 61.3537 21.673 61.26 21.58L58.44 18.76C58.347 18.6663 58.2364 18.5919 58.1146 18.5411C57.9927 18.4903 57.862 18.4642 57.73 18.4642C57.598 18.4642 57.4673 18.4903 57.3454 18.5411C57.2236 18.5919 57.113 18.6663 57.02 18.76L54.7 21.06C54.34 20.81 53.96 20.57 53.58 20.35L53.5 20.28H53.42C51.7413 19.3077 49.9079 18.6312 48 18.28V16H50C50.2652 16 50.5196 15.8946 50.7071 15.7071C50.8947 15.5196 51 15.2652 51 15V11C51 10.7348 50.8947 10.4804 50.7071 10.2929C50.5196 10.1054 50.2652 10 50 10H40C39.7348 10 39.4804 10.1054 39.2929 10.2929C39.1054 10.4804 39 10.7348 39 11V15C39 15.2652 39.1054 15.5196 39.2929 15.7071C39.4804 15.8946 39.7348 16 40 16H42V18.28C40.0921 18.6312 38.2587 19.3077 36.58 20.28H36.5L36.42 20.35C36.04 20.57 35.66 20.81 35.3 21.06L33 18.74C32.907 18.6463 32.7964 18.5719 32.6746 18.5211C32.5527 18.4703 32.422 18.4442 32.29 18.4442C32.158 18.4442 32.0273 18.4703 31.9054 18.5211C31.7836 18.5719 31.673 18.6463 31.58 18.74L28.76 21.56C28.6663 21.653 28.5919 21.7636 28.5411 21.8854C28.4903 22.0073 28.4642 22.138 28.4642 22.27C28.4642 22.402 28.4903 22.5327 28.5411 22.6546C28.5919 22.7764 28.6663 22.887 28.76 22.98L31.08 25.3C30.83 25.66 30.59 26.04 30.37 26.42L30.3 26.5C30.2974 26.5266 30.2974 26.5534 30.3 26.58C28.9901 28.8699 28.2365 31.4355 28.1 34.07C27.2409 33.7305 26.5003 33.1464 25.97 32.39C25.518 31.7499 25.2281 31.0096 25.1253 30.2327C25.0225 29.4558 25.1099 28.6656 25.38 27.93C25.4645 27.7087 25.4676 27.4645 25.3888 27.2411C25.3101 27.0177 25.1546 26.8295 24.95 26.71L22.22 25.13C22.1059 25.0639 21.9798 25.021 21.849 25.0038C21.7182 24.9866 21.5853 24.9955 21.458 25.0299C21.3307 25.0643 21.2114 25.1235 21.107 25.2042C21.0027 25.2849 20.9153 25.3854 20.85 25.5L18.35 29.83L17.85 30.7L11.85 41.09C11.0524 42.462 10.8309 44.094 11.2338 45.629C11.6368 47.1639 12.6314 48.4767 14 49.28L32.08 59.72C34.6641 61.2129 37.5957 61.9993 40.58 62H59C59.7957 62 60.5587 61.6839 61.1213 61.1213C61.6839 60.5587 62 59.7956 62 59V57C61.9967 55.0539 61.5565 53.1334 60.7119 51.3801C59.8673 49.6268 58.6398 48.0856 57.12 46.87V46.87ZM50 44.05V43C50 42.7348 49.8947 42.4804 49.7071 42.2929C49.5196 42.1054 49.2652 42 49 42C48.7348 42 48.4804 42.1054 48.2929 42.2929C48.1054 42.4804 48 42.7348 48 43V44H46V43C46 42.7348 45.8947 42.4804 45.7071 42.2929C45.5196 42.1054 45.2652 42 45 42C44.7348 42 44.4804 42.1054 44.2929 42.2929C44.1054 42.4804 44 42.7348 44 43V44H42.85L41.3 43.11L41.71 42.71C41.8983 42.5217 42.0041 42.2663 42.0041 42C42.0041 41.7337 41.8983 41.4783 41.71 41.29C41.5217 41.1017 41.2663 40.9959 41 40.9959C40.7337 40.9959 40.4783 41.1017 40.29 41.29L39.51 42.07L37.73 41.07C37.6317 41.0084 37.5602 40.912 37.53 40.8C37.4888 40.6973 37.4888 40.5827 37.53 40.48L39.1 37.76C39.2596 37.4836 39.3632 37.1784 39.4049 36.862C39.4465 36.5455 39.4254 36.2239 39.3428 35.9156C39.2601 35.6073 39.1176 35.3183 38.9232 35.0651C38.7288 34.8119 38.4865 34.5995 38.21 34.44C38.0506 34.3517 37.8721 34.3037 37.69 34.3L29.99 34.43C30.0702 32.3455 30.5881 30.3012 31.51 28.43L34.07 29.91C34.2224 29.9964 34.3948 30.0412 34.57 30.04C34.7914 30.0415 35.0071 29.9696 35.1832 29.8353C35.3593 29.7011 35.4859 29.5122 35.5431 29.2983C35.6003 29.0844 35.5848 28.8576 35.4992 28.6534C35.4136 28.4492 35.2627 28.2792 35.07 28.17L32.5 26.69C33.5923 25.0679 34.9879 23.6723 36.61 22.58L38.09 25.15C38.1562 25.2638 38.2441 25.3633 38.3489 25.443C38.4536 25.5227 38.573 25.5809 38.7003 25.6144C38.8276 25.6478 38.9602 25.6558 39.0905 25.6379C39.2209 25.62 39.3465 25.5765 39.46 25.51C39.6887 25.3781 39.856 25.161 39.9253 24.9063C39.9946 24.6515 39.9604 24.3796 39.83 24.15L38.35 21.59C40.113 20.7082 42.0334 20.1848 44 20.05V23C44 23.2652 44.1054 23.5196 44.2929 23.7071C44.4804 23.8946 44.7348 24 45 24C45.2652 24 45.5196 23.8946 45.7071 23.7071C45.8947 23.5196 46 23.2652 46 23V20.05C47.9502 20.1775 49.8564 20.6872 51.61 21.55L50.13 24.11C49.9996 24.3396 49.9654 24.6115 50.0347 24.8663C50.104 25.1211 50.2713 25.3381 50.5 25.47C50.6135 25.5365 50.7391 25.58 50.8695 25.5979C50.9998 25.6158 51.1325 25.6078 51.2597 25.5744C51.387 25.5409 51.5064 25.4827 51.6112 25.403C51.7159 25.3233 51.8038 25.2238 51.87 25.11L53.35 22.54C54.9721 23.6323 56.3677 25.0279 57.46 26.65L54.89 28.13C54.6974 28.2392 54.5464 28.4092 54.4608 28.6134C54.3752 28.8176 54.3598 29.0444 54.417 29.2583C54.4741 29.4722 54.6007 29.6611 54.7768 29.7953C54.9529 29.9296 55.1686 30.0015 55.39 30C55.5652 30.0012 55.7376 29.9564 55.89 29.87L58.45 28.39C59.3302 30.14 59.8569 32.0463 60 34H57C56.7348 34 56.4804 34.1054 56.2929 34.2929C56.1054 34.4804 56 34.7348 56 35C56 35.2652 56.1054 35.5196 56.2929 35.7071C56.4804 35.8946 56.7348 36 57 36H60C59.8658 37.9471 59.3529 39.8493 58.49 41.6L55.94 40.13C55.7093 39.9974 55.4353 39.9619 55.1784 40.0313C54.9215 40.1007 54.7026 40.2693 54.57 40.5C54.4374 40.7307 54.4019 41.0047 54.4713 41.2616C54.5407 41.5186 54.7093 41.7374 54.94 41.87L57.48 43.33C56.9005 44.1957 56.23 44.997 55.48 45.72C53.8013 44.7603 51.9286 44.1896 50 44.05V44.05ZM19.54 31.7L29.84 37.65C29.0741 38.5097 28.0349 39.0786 26.898 39.2608C25.7611 39.443 24.5962 39.2273 23.6 38.65L17.54 35.15L19.54 31.7ZM57.73 20.86L59.14 22.27L57.69 23.73C57.242 23.232 56.768 22.758 56.27 22.31L57.73 20.86ZM41 12H49V14H41V12ZM44 16H46V18.05C45.67 18.05 45.34 18 45 18C44.66 18 44.33 18 44 18.05V16ZM30.86 22.27L32.27 20.86L33.73 22.31C33.232 22.758 32.758 23.232 32.31 23.73L30.86 22.27ZM22 27.37L23.17 28.04C22.894 29.2063 22.9355 30.4252 23.29 31.57L20.54 30L22 27.37ZM16.5 36.89L22.56 40.39C23.6186 41.0092 24.8236 41.3338 26.05 41.33C26.6645 41.3297 27.2764 41.249 27.87 41.09C28.7597 40.8568 29.5939 40.4483 30.3237 39.8885C31.0535 39.3288 31.6642 38.6289 32.12 37.83C32.1861 37.7159 32.229 37.5898 32.2462 37.459C32.2634 37.3282 32.2545 37.1953 32.2201 37.068C32.1857 36.9407 32.1265 36.8214 32.0458 36.717C31.9651 36.6127 31.8646 36.5253 31.75 36.46L31.62 36.39L37.36 36.29C37.3817 36.3277 37.3985 36.368 37.41 36.41C37.4329 36.462 37.4447 36.5182 37.4447 36.575C37.4447 36.6318 37.4329 36.688 37.41 36.74L35.84 39.46C35.6804 39.7356 35.577 40.0402 35.5358 40.356C35.4946 40.6718 35.5164 40.9927 35.6 41.3C35.7662 41.9233 36.1725 42.4554 36.73 42.78L38.05 43.54L37.29 44.29C37.1963 44.383 37.1219 44.4936 37.0711 44.6154C37.0203 44.7373 36.9942 44.868 36.9942 45C36.9942 45.132 37.0203 45.2627 37.0711 45.3846C37.1219 45.5064 37.1963 45.617 37.29 45.71C37.383 45.8037 37.4936 45.8781 37.6154 45.9289C37.7373 45.9797 37.868 46.0058 38 46.0058C38.132 46.0058 38.2627 45.9797 38.3846 45.9289C38.5064 45.8781 38.617 45.8037 38.71 45.71L39.84 44.57L42.08 45.87C42.2334 45.9539 42.4052 45.9986 42.58 46H44V47C44 47.2652 44.1054 47.5196 44.2929 47.7071C44.4804 47.8946 44.7348 48 45 48C45.2652 48 45.5196 47.8946 45.7071 47.7071C45.8947 47.5196 46 47.2652 46 47V46H48V47C48 47.2652 48.1054 47.5196 48.2929 47.7071C48.4804 47.8946 48.7348 48 49 48C49.2652 48 49.5196 47.8946 49.7071 47.7071C49.8947 47.5196 50 47.2652 50 47V46C51.6577 46.1577 53.2579 46.6896 54.6801 47.5557C56.1023 48.4218 57.3092 49.5995 58.21 51H50C49.7348 51 49.4804 51.1054 49.2929 51.2929C49.1054 51.4804 49 51.7348 49 52C49 52.2652 49.1054 52.5196 49.2929 52.7071C49.4804 52.8946 49.7348 53 50 53H59C59.0764 53.0088 59.1536 53.0088 59.23 53C59.6261 53.9589 59.8853 54.9688 60 56H42.85C40.7434 55.9993 38.674 55.444 36.85 54.39L14 41.22L16.5 36.89ZM60 59C60 59.2652 59.8947 59.5196 59.7071 59.7071C59.5196 59.8946 59.2652 60 59 60H40.58C37.9478 60.0029 35.3612 59.3132 33.08 58L15 47.55C14.5432 47.2899 14.1433 46.9409 13.8238 46.5235C13.5043 46.1061 13.2718 45.6288 13.14 45.12C12.9449 44.4336 12.9449 43.7064 13.14 43.02L35.84 56.12C37.9679 57.3503 40.3821 57.9987 42.84 58H60V59Z" fill="#3B8686"/>
<path d="M7 30H15C15.2652 30 15.5196 29.8946 15.7071 29.7071C15.8946 29.5196 16 29.2652 16 29C16 28.7348 15.8946 28.4804 15.7071 28.2929C15.5196 28.1054 15.2652 28 15 28H7C6.73478 28 6.48043 28.1054 6.29289 28.2929C6.10536 28.4804 6 28.7348 6 29C6 29.2652 6.10536 29.5196 6.29289 29.7071C6.48043 29.8946 6.73478 30 7 30Z" fill="#3B8686"/>
<path d="M22 57H3C2.73478 57 2.48043 57.1054 2.29289 57.2929C2.10536 57.4804 2 57.7348 2 58C2 58.2652 2.10536 58.5196 2.29289 58.7071C2.48043 58.8946 2.73478 59 3 59H22C22.2652 59 22.5196 58.8946 22.7071 58.7071C22.8946 58.5196 23 58.2652 23 58C23 57.7348 22.8946 57.4804 22.7071 57.2929C22.5196 57.1054 22.2652 57 22 57Z" fill="#3B8686"/>
<path d="M3 38H10C10.2652 38 10.5196 37.8946 10.7071 37.7071C10.8946 37.5196 11 37.2652 11 37C11 36.7348 10.8946 36.4804 10.7071 36.2929C10.5196 36.1054 10.2652 36 10 36H3C2.73478 36 2.48043 36.1054 2.29289 36.2929C2.10536 36.4804 2 36.7348 2 37C2 37.2652 2.10536 37.5196 2.29289 37.7071C2.48043 37.8946 2.73478 38 3 38V38Z" fill="#3B8686"/>
<path d="M3 47H7C7.26522 47 7.51957 46.8946 7.70711 46.7071C7.89464 46.5196 8 46.2652 8 46C8 45.7348 7.89464 45.4804 7.70711 45.2929C7.51957 45.1054 7.26522 45 7 45H3C2.73478 45 2.48043 45.1054 2.29289 45.2929C2.10536 45.4804 2 45.7348 2 46C2 46.2652 2.10536 46.5196 2.29289 46.7071C2.48043 46.8946 2.73478 47 3 47V47Z" fill="#3B8686"/>
<path d="M6 53C6 53.2652 6.10536 53.5196 6.29289 53.7071C6.48043 53.8946 6.73478 54 7 54H15C15.2652 54 15.5196 53.8946 15.7071 53.7071C15.8946 53.5196 16 53.2652 16 53C16 52.7348 15.8946 52.4804 15.7071 52.2929C15.5196 52.1054 15.2652 52 15 52H7C6.73478 52 6.48043 52.1054 6.29289 52.2929C6.10536 52.4804 6 52.7348 6 53Z" fill="#3B8686"/>
<path d="M50 34H46V28C46 27.7348 45.8946 27.4804 45.7071 27.2929C45.5196 27.1054 45.2652 27 45 27C44.7348 27 44.4804 27.1054 44.2929 27.2929C44.1054 27.4804 44 27.7348 44 28V35C44 35.2652 44.1054 35.5196 44.2929 35.7071C44.4804 35.8946 44.7348 36 45 36H50C50.2652 36 50.5196 35.8946 50.7071 35.7071C50.8946 35.5196 51 35.2652 51 35C51 34.7348 50.8946 34.4804 50.7071 34.2929C50.5196 34.1054 50.2652 34 50 34Z" fill="#3B8686"/>
</svg>
